<svg xmlns="http://www.w3.org/2000/svg" width="19" height="19" viewBox="0 0 19 19" fill="none">
    <g clip-path="url(#clip0_1_105)">
        <path d="M9.50016 7.12492C8.87027 7.12492 8.26618 7.37514 7.82078 7.82054C7.37539 8.26594 7.12516 8.87003 7.12516 9.49992C7.12516 10.1298 7.37539 10.7339 7.82078 11.1793C8.26618 11.6247 8.87027 11.8749 9.50016 11.8749C10.1301 11.8749 10.7341 11.6247 11.1795 11.1793C11.6249 10.7339 11.8752 10.1298 11.8752 9.49992C11.8752 8.87003 11.6249 8.26594 11.1795 7.82054C10.7341 7.37514 10.1301 7.12492 9.50016 7.12492ZM9.50016 5.54159C10.55 5.54159 11.5568 5.95862 12.2991 6.70095C13.0415 7.44329 13.4585 8.4501 13.4585 9.49992C13.4585 10.5497 13.0415 11.5566 12.2991 12.2989C11.5568 13.0412 10.55 13.4583 9.50016 13.4583C8.45035 13.4583 7.44353 13.0412 6.7012 12.2989C5.95887 11.5566 5.54183 10.5497 5.54183 9.49992C5.54183 8.4501 5.95887 7.44329 6.7012 6.70095C7.44353 5.95862 8.45035 5.54159 9.50016 5.54159ZM14.646 5.34367C14.646 5.60612 14.5417 5.85783 14.3562 6.04341C14.1706 6.22899 13.9189 6.33325 13.6564 6.33325C13.394 6.33325 13.1423 6.22899 12.9567 6.04341C12.7711 5.85783 12.6668 5.60612 12.6668 5.34367C12.6668 5.08122 12.7711 4.82951 12.9567 4.64393C13.1423 4.45834 13.394 4.35409 13.6564 4.35409C13.9189 4.35409 14.1706 4.45834 14.3562 4.64393C14.5417 4.82951 14.646 5.08122 14.646 5.34367ZM9.50016 3.16659C7.54158 3.16659 7.22175 3.17213 6.31054 3.2125C5.68987 3.24179 5.27345 3.32492 4.88712 3.47534C4.54354 3.60834 4.29575 3.76746 4.03212 4.03188C3.78434 4.27128 3.59382 4.56355 3.47479 4.88688C3.32437 5.27479 3.24125 5.69042 3.21275 6.31029C3.17158 7.18429 3.16683 7.48988 3.16683 9.49992C3.16683 11.4585 3.17237 11.7783 3.21275 12.6895C3.24204 13.3094 3.32516 13.7266 3.47479 14.1122C3.60937 14.4565 3.7677 14.7043 4.03054 14.9672C4.29733 15.2332 4.54512 15.3923 4.88554 15.5237C5.27662 15.6749 5.69304 15.7588 6.31054 15.7873C7.18454 15.8285 7.49012 15.8333 9.50016 15.8333C11.4587 15.8333 11.7786 15.8277 12.6898 15.7873C13.3089 15.758 13.7261 15.6749 14.1124 15.5253C14.4552 15.3915 14.7046 15.2324 14.9674 14.9695C15.2342 14.7028 15.3933 14.455 15.5247 14.1145C15.6752 13.7243 15.7591 13.307 15.7876 12.6895C15.8287 11.8155 15.8335 11.51 15.8335 9.49992C15.8335 7.54134 15.828 7.2215 15.7876 6.31029C15.7583 5.69121 15.6752 5.27321 15.5247 4.88688C15.4054 4.56388 15.2153 4.27172 14.9682 4.03188C14.7289 3.78396 14.4366 3.59343 14.1132 3.47454C13.7253 3.32413 13.3089 3.241 12.6898 3.2125C11.8158 3.17134 11.5102 3.16659 9.50016 3.16659ZM9.50016 1.58325C11.6511 1.58325 11.9195 1.59117 12.7634 1.63075C13.6065 1.67034 14.1805 1.80254 14.6856 1.99888C15.2081 2.19996 15.6482 2.47229 16.0884 2.91167C16.491 3.30742 16.8025 3.78613 17.0012 4.3145C17.1967 4.81879 17.3297 5.39354 17.3693 6.23667C17.4065 7.08059 17.4168 7.34896 17.4168 9.49992C17.4168 11.6509 17.4089 11.9193 17.3693 12.7632C17.3297 13.6063 17.1967 14.1803 17.0012 14.6853C16.803 15.214 16.4915 15.6928 16.0884 16.0882C15.6926 16.4906 15.2139 16.8021 14.6856 17.001C14.1813 17.1965 13.6065 17.3295 12.7634 17.3691C11.9195 17.4063 11.6511 17.4166 9.50016 17.4166C7.34921 17.4166 7.08083 17.4087 6.23691 17.3691C5.39379 17.3295 4.81983 17.1965 4.31475 17.001C3.78617 16.8026 3.30737 16.4911 2.91191 16.0882C2.50928 15.6925 2.19778 15.2137 1.99912 14.6853C1.80279 14.181 1.67058 13.6063 1.631 12.7632C1.59379 11.9193 1.5835 11.6509 1.5835 9.49992C1.5835 7.34896 1.59141 7.08059 1.631 6.23667C1.67058 5.39275 1.80279 4.81959 1.99912 4.3145C2.19722 3.78581 2.5088 3.30696 2.91191 2.91167C3.30749 2.50889 3.78625 2.19737 4.31475 1.99888C4.81983 1.80254 5.393 1.67034 6.23691 1.63075C7.08083 1.59354 7.34921 1.58325 9.50016 1.58325Z" fill="#currentColor"/>
    </g>
    <defs>
        <clipPath id="clip0_1_105">
            <rect width="19" height="19" fill="white"/>
        </clipPath>
    </defs>
</svg>