<svg xmlns="http://www.w3.org/2000/svg" width="19" height="19" viewBox="0 0 19 19" fill="none">
    <g clip-path="url(#clip0_1_108)">
        <path d="M9.50016 15.8333C11.1799 15.8333 12.7908 15.166 13.9785 13.9783C15.1662 12.7905 15.8335 11.1796 15.8335 9.49992C15.8335 7.82021 15.1662 6.20931 13.9785 5.02158C12.7908 3.83385 11.1799 3.16659 9.50016 3.16659C7.82046 3.16659 6.20955 3.83385 5.02182 5.02158C3.83409 6.20931 3.16683 7.82021 3.16683 9.49992C3.16683 11.1796 3.83409 12.7905 5.02182 13.9783C6.20955 15.166 7.82046 15.8333 9.50016 15.8333ZM9.50016 17.4166C5.12779 17.4166 1.5835 13.8723 1.5835 9.49992C1.5835 5.12754 5.12779 1.58325 9.50016 1.58325C13.8725 1.58325 17.4168 5.12754 17.4168 9.49992C17.4168 13.8723 13.8725 17.4166 9.50016 17.4166ZM7.03808 10.4262L5.0605 9.80946C4.633 9.67884 4.63062 9.38434 5.15629 9.17296L12.8616 6.19629C13.3089 6.01421 13.5622 6.24459 13.4173 6.82171L12.1055 13.0125C12.0137 13.4535 11.7485 13.5588 11.3804 13.3553L9.36083 11.8607L8.41954 12.7695C8.32296 12.8629 8.24458 12.9429 8.09575 12.9627C7.9477 12.9833 7.82579 12.9389 7.73633 12.6935L7.04758 10.4206L7.03808 10.4262Z" fill="#currentColor"/>
    </g>
    <defs>
        <clipPath id="clip0_1_108">
            <rect width="19" height="19" fill="white"/>
        </clipPath>
    </defs>
</svg>